<svg xmlns="http://www.w3.org/2000/svg" xmlns:xlink="http://www.w3.org/1999/xlink" width="500" zoomAndPan="magnify" viewBox="0 0 375 149.999998" height="200" preserveAspectRatio="xMidYMid meet" version="1.0"><defs><g/><clipPath id="fe83e1b47d"><path d="M 9.210938 27.503906 L 95.433594 27.503906 L 95.433594 115.25 L 9.210938 115.25 Z M 9.210938 27.503906 " clip-rule="nonzero"/></clipPath></defs><g clip-path="url(#fe83e1b47d)"><path fill="#77bac9" d="M 94.992188 42.40625 C 96.375 48.078125 94.652344 54.875 91.570312 61.246094 C 86.292969 72.238281 82.554688 83.675781 81.414062 95.199219 C 81.378906 95.570312 81.34375 95.9375 81.304688 96.308594 C 80.214844 101.742188 79.003906 107.167969 77.671875 112.582031 C 76.558594 115.660156 69.183594 116.261719 67.589844 113.40625 C 65.417969 109.566406 63.332031 105.699219 61.339844 101.804688 C 59.765625 98.753906 57.582031 95.882812 54.867188 93.273438 C 53.769531 92.214844 52.792969 91.710938 52.34375 91.710938 C 51.890625 91.710938 50.914062 92.214844 49.816406 93.273438 C 47.101562 95.882812 44.917969 98.753906 43.34375 101.804688 C 41.351562 105.699219 39.269531 109.566406 37.09375 113.40625 C 35.5 116.261719 28.125 115.660156 27.015625 112.585938 C 25.683594 107.167969 24.472656 101.742188 23.378906 96.308594 C 23.339844 95.9375 23.304688 95.570312 23.269531 95.199219 C 22.132812 83.675781 18.394531 72.238281 13.113281 61.246094 C 10.03125 54.875 8.308594 48.078125 9.695312 42.40625 C 9.871094 41.664062 10.0625 40.988281 10.265625 40.359375 C 14.449219 27.820312 23.902344 25.890625 33.476562 28.59375 C 35.984375 29.308594 38.28125 30.632812 40.210938 32.417969 C 42.199219 34.269531 44.96875 36.980469 47.3125 40.089844 C 51.046875 45.019531 54.070312 47.101562 58.820312 48.378906 C 65.855469 50.242188 71.496094 49.480469 71.476562 49.488281 C 71.582031 49.464844 63.074219 48.738281 52.859375 39.90625 C 51.703125 38.90625 49.578125 37.179688 49.585938 37.179688 C 49.585938 37.179688 49.648438 37.183594 49.765625 37.195312 C 52.671875 37.472656 55.613281 36.742188 57.945312 35.113281 C 71.492188 25.921875 88.132812 22.28125 94.421875 40.359375 C 94.625 40.988281 94.8125 41.664062 94.992188 42.40625 " fill-opacity="1" fill-rule="nonzero"/></g><path fill="#ffffff" d="M 75.152344 61.742188 L 75.0625 61.652344 C 72.558594 59.148438 68.496094 59.148438 65.992188 61.652344 L 65.988281 61.652344 C 63.484375 59.148438 59.425781 59.148438 56.917969 61.652344 L 56.828125 61.742188 C 54.324219 64.246094 54.324219 68.308594 56.828125 70.8125 L 65.992188 79.976562 L 75.152344 70.8125 C 77.65625 68.308594 77.65625 64.246094 75.152344 61.742188 " fill-opacity="1" fill-rule="nonzero"/><g fill="#191919" fill-opacity="1"><g transform="translate(122.647086, 59.649197)"><g><path d="M 1.878906 0 L 9.890625 0 C 17.339844 0 21.46875 -3.941406 21.46875 -11.015625 C 21.46875 -18.121094 17.339844 -22.0625 9.890625 -22.0625 L 1.878906 -22.0625 Z M 4.476562 -2.316406 L 4.476562 -19.746094 L 9.890625 -19.746094 C 15.648438 -19.746094 18.871094 -16.648438 18.871094 -11.015625 C 18.871094 -5.414062 15.648438 -2.316406 9.890625 -2.316406 Z M 4.476562 -2.316406 "/></g></g></g><g fill="#191919" fill-opacity="1"><g transform="translate(145.210001, 59.649197)"><g><path d="M 3.003906 -18.871094 C 4.039062 -18.871094 4.789062 -19.558594 4.789062 -20.625 C 4.789062 -21.65625 4.039062 -22.34375 3.003906 -22.34375 C 1.941406 -22.34375 1.25 -21.65625 1.25 -20.625 C 1.25 -19.558594 1.941406 -18.871094 3.003906 -18.871094 Z M 1.785156 0 L 4.164062 0 L 4.164062 -15.804688 L 1.785156 -15.804688 Z M 1.785156 0 "/></g></g></g><g fill="#191919" fill-opacity="1"><g transform="translate(151.249726, 59.649197)"><g><path d="M 6.730469 0.625 C 9.546875 0.625 11.734375 -0.625 12.863281 -2.628906 L 12.894531 -2.628906 L 12.925781 -1.910156 C 13.019531 -0.46875 13.988281 0.625 15.523438 0.625 C 16.742188 0.625 18.058594 -0.03125 18.714844 -1 L 17.433594 -2.503906 C 17.085938 -1.941406 16.585938 -1.566406 16.148438 -1.566406 C 15.648438 -1.566406 15.304688 -2.003906 15.304688 -2.628906 L 15.304688 -10.640625 C 15.304688 -14.175781 12.457031 -16.429688 8.417969 -16.429688 C 4.320312 -16.429688 1.25 -13.988281 0.96875 -11.390625 L 3.128906 -10.484375 C 3.253906 -12.363281 5.351562 -14.269531 8.324219 -14.269531 C 11.078125 -14.269531 12.957031 -12.988281 12.957031 -11.015625 C 12.957031 -10.328125 12.457031 -9.890625 11.671875 -9.796875 L 7.761719 -9.328125 C 2.628906 -8.699219 0.625 -6.667969 0.625 -4.132812 C 0.625 -1.3125 3.128906 0.625 6.730469 0.625 Z M 7.136719 -1.535156 C 4.726562 -1.535156 3.003906 -2.566406 3.003906 -4.164062 C 3.003906 -5.601562 4.195312 -6.824219 8.011719 -7.292969 L 12.894531 -7.886719 L 12.894531 -6.761719 C 12.894531 -3.691406 10.453125 -1.535156 7.136719 -1.535156 Z M 7.136719 -1.535156 "/></g></g></g><g fill="#191919" fill-opacity="1"><g transform="translate(169.963486, 59.649197)"><g><path d="M 8.980469 0.625 C 11.609375 0.625 13.800781 -0.625 15.148438 -2.722656 L 15.179688 -2.722656 L 15.398438 0 L 17.496094 0 L 17.496094 -23.003906 L 15.085938 -23.003906 L 15.085938 -13.144531 L 15.054688 -13.144531 C 13.707031 -15.210938 11.578125 -16.429688 8.949219 -16.429688 C 4.320312 -16.429688 0.9375 -12.832031 0.9375 -7.886719 C 0.9375 -2.972656 4.351562 0.625 8.980469 0.625 Z M 9.261719 -1.535156 C 5.851562 -1.535156 3.316406 -4.257812 3.316406 -7.886719 C 3.316406 -11.484375 5.820312 -14.238281 9.261719 -14.238281 C 12.675781 -14.238281 15.179688 -11.484375 15.179688 -7.886719 C 15.179688 -4.320312 12.675781 -1.535156 9.261719 -1.535156 Z M 9.261719 -1.535156 "/></g></g></g><g fill="#191919" fill-opacity="1"><g transform="translate(189.021487, 59.649197)"><g><path d="M 9.671875 0.625 C 13.207031 0.625 16.179688 -1.15625 17.210938 -3.691406 L 15.148438 -4.539062 C 14.269531 -2.816406 12.175781 -1.535156 9.703125 -1.535156 C 6.289062 -1.535156 3.753906 -3.816406 3.410156 -7.105469 L 16.710938 -7.105469 C 16.742188 -7.417969 16.742188 -7.761719 16.742188 -8.042969 C 16.679688 -12.925781 13.644531 -16.429688 9.011719 -16.429688 C 4.320312 -16.429688 0.9375 -12.925781 0.9375 -8.074219 C 0.9375 -3.035156 4.632812 0.625 9.671875 0.625 Z M 3.441406 -9.199219 C 3.878906 -12.207031 6.039062 -14.238281 8.980469 -14.238281 C 11.859375 -14.238281 13.894531 -12.425781 14.207031 -9.199219 Z M 3.441406 -9.199219 "/></g></g></g><g fill="#191919" fill-opacity="1"><g transform="translate(206.984195, 59.649197)"><g><path d="M 10.046875 -16.429688 C 7.292969 -16.429688 5.320312 -15.367188 3.972656 -13.457031 L 3.941406 -13.457031 L 3.722656 -15.804688 L 1.566406 -15.804688 L 1.566406 0 L 3.941406 0 L 3.941406 -8.917969 C 3.941406 -12.144531 6.226562 -14.363281 9.390625 -14.363281 C 11.890625 -14.363281 13.488281 -12.644531 13.488281 -9.953125 L 13.488281 0 L 15.898438 0 L 15.898438 -10.203125 C 15.898438 -14.113281 13.675781 -16.429688 10.046875 -16.429688 Z M 10.046875 -16.429688 "/></g></g></g><g fill="#191919" fill-opacity="1"><g transform="translate(224.28973, 59.649197)"><g><path d="M 8.449219 0.625 C 11.140625 0.625 13.550781 -1.0625 13.988281 -3.816406 L 12.050781 -4.632812 C 11.734375 -2.597656 10.265625 -1.441406 8.667969 -1.441406 C 6.949219 -1.441406 5.851562 -2.722656 5.851562 -4.507812 L 5.851562 -13.832031 L 12.925781 -13.832031 L 12.925781 -15.804688 L 5.851562 -15.804688 L 5.851562 -21.0625 L 3.472656 -20.5 L 3.472656 -15.804688 L 0 -15.804688 L 0 -13.832031 L 3.472656 -13.832031 L 3.472656 -4.257812 C 3.472656 -1.378906 5.476562 0.625 8.449219 0.625 Z M 8.449219 0.625 "/></g></g></g><g fill="#191919" fill-opacity="1"><g transform="translate(122.647086, 95.928151)"><g><path d="M 1.878906 0 L 9.890625 0 C 17.339844 0 21.46875 -3.941406 21.46875 -11.015625 C 21.46875 -18.121094 17.339844 -22.0625 9.890625 -22.0625 L 1.878906 -22.0625 Z M 4.476562 -2.316406 L 4.476562 -19.746094 L 9.890625 -19.746094 C 15.648438 -19.746094 18.871094 -16.648438 18.871094 -11.015625 C 18.871094 -5.414062 15.648438 -2.316406 9.890625 -2.316406 Z M 4.476562 -2.316406 "/></g></g></g><g fill="#191919" fill-opacity="1"><g transform="translate(145.210001, 95.928151)"><g><path d="M 8.417969 -16.460938 C 6.414062 -16.460938 4.726562 -15.242188 3.847656 -13.332031 L 3.816406 -13.332031 L 3.597656 -15.804688 L 1.566406 -15.804688 L 1.566406 0 L 3.941406 0 L 3.941406 -8.699219 C 3.941406 -12.144531 5.539062 -14.238281 8.074219 -14.238281 C 9.796875 -14.238281 10.953125 -13.050781 11.203125 -10.828125 L 13.269531 -11.515625 C 12.957031 -14.679688 11.109375 -16.460938 8.417969 -16.460938 Z M 8.417969 -16.460938 "/></g></g></g><g fill="#191919" fill-opacity="1"><g transform="translate(159.104502, 95.928151)"><g><path d="M 3.003906 0.375 C 4.039062 0.375 4.789062 -0.34375 4.789062 -1.378906 C 4.789062 -2.378906 4.039062 -3.097656 3.003906 -3.097656 C 1.972656 -3.097656 1.25 -2.378906 1.25 -1.378906 C 1.25 -0.34375 1.972656 0.375 3.003906 0.375 Z M 3.003906 0.375 "/></g></g></g><g fill="#191919" fill-opacity="1"><g transform="translate(165.144226, 95.928151)"><g/></g></g><g fill="#191919" fill-opacity="1"><g transform="translate(173.656175, 95.928151)"><g><path d="M 1.878906 0 L 9.890625 0 C 17.339844 0 21.46875 -3.941406 21.46875 -11.015625 C 21.46875 -18.121094 17.339844 -22.0625 9.890625 -22.0625 L 1.878906 -22.0625 Z M 4.476562 -2.316406 L 4.476562 -19.746094 L 9.890625 -19.746094 C 15.648438 -19.746094 18.871094 -16.648438 18.871094 -11.015625 C 18.871094 -5.414062 15.648438 -2.316406 9.890625 -2.316406 Z M 4.476562 -2.316406 "/></g></g></g><g fill="#191919" fill-opacity="1"><g transform="translate(196.21909, 95.928151)"><g><path d="M 3.003906 -18.871094 C 4.039062 -18.871094 4.789062 -19.558594 4.789062 -20.625 C 4.789062 -21.65625 4.039062 -22.34375 3.003906 -22.34375 C 1.941406 -22.34375 1.25 -21.65625 1.25 -20.625 C 1.25 -19.558594 1.941406 -18.871094 3.003906 -18.871094 Z M 1.785156 0 L 4.164062 0 L 4.164062 -15.804688 L 1.785156 -15.804688 Z M 1.785156 0 "/></g></g></g><g fill="#191919" fill-opacity="1"><g transform="translate(202.258815, 95.928151)"><g><path d="M 6.730469 0.625 C 9.546875 0.625 11.734375 -0.625 12.863281 -2.628906 L 12.894531 -2.628906 L 12.925781 -1.910156 C 13.019531 -0.46875 13.988281 0.625 15.523438 0.625 C 16.742188 0.625 18.058594 -0.03125 18.714844 -1 L 17.433594 -2.503906 C 17.085938 -1.941406 16.585938 -1.566406 16.148438 -1.566406 C 15.648438 -1.566406 15.304688 -2.003906 15.304688 -2.628906 L 15.304688 -10.640625 C 15.304688 -14.175781 12.457031 -16.429688 8.417969 -16.429688 C 4.320312 -16.429688 1.25 -13.988281 0.96875 -11.390625 L 3.128906 -10.484375 C 3.253906 -12.363281 5.351562 -14.269531 8.324219 -14.269531 C 11.078125 -14.269531 12.957031 -12.988281 12.957031 -11.015625 C 12.957031 -10.328125 12.457031 -9.890625 11.671875 -9.796875 L 7.761719 -9.328125 C 2.628906 -8.699219 0.625 -6.667969 0.625 -4.132812 C 0.625 -1.3125 3.128906 0.625 6.730469 0.625 Z M 7.136719 -1.535156 C 4.726562 -1.535156 3.003906 -2.566406 3.003906 -4.164062 C 3.003906 -5.601562 4.195312 -6.824219 8.011719 -7.292969 L 12.894531 -7.886719 L 12.894531 -6.761719 C 12.894531 -3.691406 10.453125 -1.535156 7.136719 -1.535156 Z M 7.136719 -1.535156 "/></g></g></g><g fill="#191919" fill-opacity="1"><g transform="translate(220.972575, 95.928151)"><g><path d="M 10.046875 -16.429688 C 7.292969 -16.429688 5.320312 -15.367188 3.972656 -13.457031 L 3.941406 -13.457031 L 3.722656 -15.804688 L 1.566406 -15.804688 L 1.566406 0 L 3.941406 0 L 3.941406 -8.917969 C 3.941406 -12.144531 6.226562 -14.363281 9.390625 -14.363281 C 11.890625 -14.363281 13.488281 -12.644531 13.488281 -9.953125 L 13.488281 0 L 15.898438 0 L 15.898438 -10.203125 C 15.898438 -14.113281 13.675781 -16.429688 10.046875 -16.429688 Z M 10.046875 -16.429688 "/></g></g></g><g fill="#191919" fill-opacity="1"><g transform="translate(238.278111, 95.928151)"><g><path d="M 6.730469 0.625 C 9.546875 0.625 11.734375 -0.625 12.863281 -2.628906 L 12.894531 -2.628906 L 12.925781 -1.910156 C 13.019531 -0.46875 13.988281 0.625 15.523438 0.625 C 16.742188 0.625 18.058594 -0.03125 18.714844 -1 L 17.433594 -2.503906 C 17.085938 -1.941406 16.585938 -1.566406 16.148438 -1.566406 C 15.648438 -1.566406 15.304688 -2.003906 15.304688 -2.628906 L 15.304688 -10.640625 C 15.304688 -14.175781 12.457031 -16.429688 8.417969 -16.429688 C 4.320312 -16.429688 1.25 -13.988281 0.96875 -11.390625 L 3.128906 -10.484375 C 3.253906 -12.363281 5.351562 -14.269531 8.324219 -14.269531 C 11.078125 -14.269531 12.957031 -12.988281 12.957031 -11.015625 C 12.957031 -10.328125 12.457031 -9.890625 11.671875 -9.796875 L 7.761719 -9.328125 C 2.628906 -8.699219 0.625 -6.667969 0.625 -4.132812 C 0.625 -1.3125 3.128906 0.625 6.730469 0.625 Z M 7.136719 -1.535156 C 4.726562 -1.535156 3.003906 -2.566406 3.003906 -4.164062 C 3.003906 -5.601562 4.195312 -6.824219 8.011719 -7.292969 L 12.894531 -7.886719 L 12.894531 -6.761719 C 12.894531 -3.691406 10.453125 -1.535156 7.136719 -1.535156 Z M 7.136719 -1.535156 "/></g></g></g><g fill="#191919" fill-opacity="1"><g transform="translate(256.991871, 95.928151)"><g/></g></g><g fill="#191919" fill-opacity="1"><g transform="translate(265.503819, 95.928151)"><g><path d="M 1.878906 0 L 12.019531 0 C 16.804688 0 19.558594 -2.253906 19.558594 -6.164062 C 19.558594 -8.949219 18.058594 -10.828125 15.398438 -11.390625 L 15.398438 -11.421875 C 17.589844 -12.019531 18.871094 -13.707031 18.871094 -16.117188 C 18.871094 -19.902344 16.367188 -22.0625 11.988281 -22.0625 L 1.878906 -22.0625 Z M 4.476562 -12.519531 L 4.476562 -19.746094 L 11.671875 -19.746094 C 14.613281 -19.746094 16.304688 -18.402344 16.304688 -16.117188 C 16.304688 -13.832031 14.613281 -12.519531 11.671875 -12.519531 Z M 4.476562 -2.316406 L 4.476562 -10.203125 L 11.671875 -10.203125 C 15.023438 -10.203125 16.992188 -8.761719 16.992188 -6.289062 C 16.992188 -3.753906 15.023438 -2.316406 11.671875 -2.316406 Z M 4.476562 -2.316406 "/></g></g></g><g fill="#191919" fill-opacity="1"><g transform="translate(286.001338, 95.928151)"><g><path d="M 7.261719 0.625 C 10.015625 0.625 11.988281 -0.4375 13.332031 -2.347656 L 13.363281 -2.347656 L 13.582031 0 L 15.742188 0 L 15.742188 -15.804688 L 13.363281 -15.804688 L 13.363281 -6.886719 C 13.363281 -3.660156 11.078125 -1.441406 7.917969 -1.441406 C 5.414062 -1.441406 3.816406 -3.160156 3.816406 -5.851562 L 3.816406 -15.804688 L 1.410156 -15.804688 L 1.410156 -5.601562 C 1.410156 -1.691406 3.628906 0.625 7.261719 0.625 Z M 7.261719 0.625 "/></g></g></g><g fill="#191919" fill-opacity="1"><g transform="translate(303.306873, 95.928151)"><g><path d="M 8.105469 0.625 C 11.921875 0.625 14.804688 -1.566406 14.804688 -4.539062 C 14.804688 -6.886719 13.207031 -8.199219 9.484375 -8.980469 L 6.917969 -9.484375 C 4.726562 -9.953125 3.785156 -10.609375 3.785156 -11.765625 C 3.816406 -13.113281 5.289062 -14.332031 7.292969 -14.332031 C 9.546875 -14.332031 11.203125 -13.113281 11.421875 -11.453125 L 13.707031 -12.082031 C 13.113281 -14.648438 10.640625 -16.429688 7.324219 -16.429688 C 3.941406 -16.429688 1.503906 -14.394531 1.472656 -11.640625 C 1.472656 -9.328125 2.878906 -8.011719 6.164062 -7.324219 L 8.667969 -6.824219 C 11.328125 -6.289062 12.488281 -5.539062 12.488281 -4.320312 C 12.488281 -2.691406 10.578125 -1.535156 8.105469 -1.535156 C 5.289062 -1.535156 3.160156 -3.066406 2.972656 -5.257812 L 0.625 -4.789062 C 0.90625 -1.410156 4.164062 0.625 8.105469 0.625 Z M 8.105469 0.625 "/></g></g></g><g fill="#191919" fill-opacity="1"><g transform="translate(318.734771, 95.928151)"><g><path d="M 9.359375 0.625 C 14.457031 0.625 17.808594 -2.753906 17.808594 -7.886719 C 17.808594 -13.050781 14.457031 -16.429688 9.359375 -16.429688 C 4.289062 -16.429688 0.9375 -13.050781 0.9375 -7.886719 C 0.9375 -2.753906 4.289062 0.625 9.359375 0.625 Z M 9.359375 -1.535156 C 5.695312 -1.535156 3.316406 -4.039062 3.316406 -7.886719 C 3.316406 -11.734375 5.695312 -14.238281 9.359375 -14.238281 C 13.019531 -14.238281 15.398438 -11.734375 15.398438 -7.886719 C 15.398438 -4.039062 13.019531 -1.535156 9.359375 -1.535156 Z M 9.359375 -1.535156 "/></g></g></g><g fill="#191919" fill-opacity="1"><g transform="translate(337.479824, 95.928151)"><g><path d="M 3.003906 -18.871094 C 4.039062 -18.871094 4.789062 -19.558594 4.789062 -20.625 C 4.789062 -21.65625 4.039062 -22.34375 3.003906 -22.34375 C 1.941406 -22.34375 1.25 -21.65625 1.25 -20.625 C 1.25 -19.558594 1.941406 -18.871094 3.003906 -18.871094 Z M 1.785156 0 L 4.164062 0 L 4.164062 -15.804688 L 1.785156 -15.804688 Z M 1.785156 0 "/></g></g></g></svg>